<svg width="8" height="8" viewBox="0 0 8 8" fill="none" xmlns="http://www.w3.org/2000/svg">
<g id="IconClose">
<path id="Mask-10" opacity="0.5" d="M7.71146 1.68165C7.96031 1.43279 8.0575 1.07008 7.96641 0.730139C7.87533 0.390199 7.6098 0.124675 7.26986 0.033588C6.92992 -0.0574989 6.56721 0.0396896 6.31835 0.288543L4.00062 2.60751L1.68165 0.288543C1.43279 0.0396896 1.07008 -0.0574989 0.730139 0.033588C0.390199 0.124675 0.124675 0.390199 0.033588 0.730139C-0.0574989 1.07008 0.0396896 1.43279 0.288543 1.68165L2.60751 4.00062L0.288543 6.31835C0.0396896 6.56721 -0.0574989 6.92992 0.033588 7.26986C0.124675 7.6098 0.390199 7.87533 0.730139 7.96641C1.07008 8.0575 1.43279 7.96031 1.68165 7.71146L4.00062 5.39249L4.43711 5.82899L6.31835 7.71023C6.70271 8.09492 7.32615 8.0952 7.71084 7.71084C8.09554 7.32649 8.09581 6.70305 7.71146 6.31835L5.39249 4.00062L7.71146 1.68165Z" fill="#191D23"/>
</g>
</svg>
